<?xml version="1.0" standalone="no"?>
<!DOCTYPE svg PUBLIC "-//W3C//DTD SVG 20010904//EN"
 "http://www.w3.org/TR/2001/REC-SVG-20010904/DTD/svg10.dtd">
<svg version="1.0" xmlns="http://www.w3.org/2000/svg"
 width="270.000000pt" height="279.000000pt" viewBox="0 0 270.000000 279.000000"
 preserveAspectRatio="xMidYMid meet">

<g transform="translate(0.000000,279.000000) scale(0.100000,-0.100000)"
fill="#000000" stroke="none">
<path d="M1235 2779 c-300 -45 -549 -238 -665 -515 -130 -313 -53 -684 232
-1124 86 -133 249 -353 256 -346 1 2 -7 41 -18 87 -25 105 -39 289 -21 289 7
0 24 -6 39 -13 116 -58 405 -59 567 -2 286 99 493 340 550 640 82 427 -194
857 -618 964 -89 23 -242 32 -322 20z m-279 -171 c-129 -142 -225 -326 -269
-511 -18 -77 -21 -122 -21 -282 0 -126 6 -216 15 -267 9 -43 14 -78 12 -78 -2
0 -15 24 -27 53 -71 159 -94 398 -58 583 35 174 113 323 229 435 51 50 156
129 170 129 3 0 -20 -28 -51 -62z m739 -93 c232 -61 385 -283 355 -517 -10
-82 -39 -157 -98 -254 -50 -83 -167 -241 -228 -309 -31 -34 -35 -36 -29 -15
21 69 35 128 35 154 0 25 -3 28 -22 22 -52 -14 -167 -18 -217 -7 -309 66 -478
406 -338 678 37 72 121 163 184 200 103 60 240 78 358 48z"/>
<path d="M1317 2102 c-22 -25 -21 -75 1 -95 43 -39 112 -8 112 50 0 53 -78 84
-113 45z"/>
<path d="M1550 2093 c-47 -60 20 -131 90 -93 35 19 33 88 -4 112 -25 17 -65 8
-86 -19z"/>
<path d="M1778 2103 c-26 -31 -28 -40 -17 -72 26 -73 144 -41 125 34 -13 52
-76 74 -108 38z"/>
<path d="M648 622 c-19 -21 -43 -53 -54 -70 -10 -18 -25 -32 -34 -32 -17 0
-40 -19 -40 -33 0 -5 11 -6 25 -3 14 4 44 2 67 -4 33 -10 43 -9 56 3 13 14 10
17 -27 27 -22 6 -41 13 -41 16 0 7 62 94 67 94 2 0 -4 -14 -12 -31 -17 -32
-15 -46 4 -34 13 7 41 71 41 91 0 23 -16 16 -52 -24z"/>
<path d="M824 628 c-17 -18 -41 -46 -53 -63 -12 -16 -34 -37 -48 -45 -36 -21
-44 -45 -12 -37 13 3 43 2 68 -4 36 -8 47 -7 59 5 13 13 10 16 -31 27 l-47 11
32 45 c40 55 55 66 33 23 -17 -32 -15 -47 4 -35 13 7 41 71 41 91 0 22 -14 17
-46 -18z"/>
<path d="M1248 643 c-21 -8 -38 -19 -38 -24 0 -5 -4 -9 -10 -9 -5 0 -10 9 -10
20 0 45 -85 7 -115 -50 -18 -35 -19 -72 -3 -88 29 -29 94 1 117 55 10 25 30
39 81 61 8 3 0 -14 -18 -38 -32 -44 -42 -90 -20 -90 7 0 30 17 51 38 26 24 36
30 28 15 -6 -12 -11 -29 -11 -37 0 -22 38 -20 64 2 20 16 20 16 7 -1 -25 -32
-1 -31 32 1 18 18 43 32 55 32 19 0 21 -4 16 -25 -5 -20 -2 -25 14 -25 11 0
26 8 33 17 12 15 12 16 -4 10 -15 -5 -16 -3 -8 12 6 10 18 21 27 25 9 4 14 12
10 22 -3 8 1 29 10 46 8 16 13 32 10 35 -7 7 -52 -21 -89 -56 -15 -14 -38 -26
-50 -26 -17 0 -22 -6 -22 -25 0 -18 -5 -25 -20 -25 -11 0 -26 -4 -33 -9 -34
-21 -22 23 25 96 31 49 2 44 -46 -7 -53 -58 -90 -90 -76 -65 4 8 22 34 38 57
29 41 31 74 5 72 -7 0 -30 -7 -50 -16z m-68 -54 c0 -25 -75 -104 -90 -94 -19
12 -10 38 29 76 44 44 61 49 61 18z m340 1 c-6 -11 -18 -20 -27 -20 -14 0 -14
2 2 20 10 11 22 20 27 20 5 0 4 -9 -2 -20z"/>
<path d="M1750 638 c-57 -39 -93 -92 -94 -139 -2 -71 50 -78 119 -18 43 39 38
52 -5 15 -54 -45 -102 -28 -80 29 10 28 88 115 101 115 19 0 7 -23 -32 -61
-22 -21 -37 -44 -34 -50 17 -26 98 67 93 105 -4 29 -29 30 -68 4z"/>
<path d="M2052 640 c-43 -26 -41 -62 3 -71 17 -4 23 -7 14 -8 -28 -2 -69 -41
-69 -67 0 -30 35 -40 84 -24 30 10 72 47 63 57 -2 1 -22 -7 -45 -18 -25 -13
-49 -18 -62 -14 -20 6 -21 8 -4 26 9 10 34 24 55 29 44 12 60 30 27 30 -32 0
-68 11 -68 20 0 8 54 30 72 30 5 0 6 -5 2 -11 -4 -8 0 -8 15 0 11 7 21 18 21
26 0 22 -69 19 -108 -5z"/>
<path d="M474 607 c-27 -24 -55 -42 -62 -40 -7 3 -19 -1 -28 -8 -12 -10 -12
-14 -2 -20 10 -7 5 -15 -17 -33 -16 -13 -27 -28 -22 -32 4 -4 22 7 40 24 18
18 43 32 55 32 19 0 21 -4 16 -25 -7 -30 11 -34 42 -9 16 13 16 15 2 10 -27
-8 -22 11 8 30 14 10 23 23 20 31 -3 8 1 27 9 43 18 36 19 40 1 40 -8 0 -36
-20 -62 -43z m26 -16 c-6 -12 -18 -21 -27 -21 -13 0 -12 5 7 25 27 29 37 27
20 -4z"/>
<path d="M996 610 c-26 -22 -56 -40 -66 -40 -10 0 -23 -7 -30 -15 -10 -12 -10
-15 1 -15 7 0 -2 -14 -21 -32 -23 -21 -30 -33 -22 -36 8 -2 28 10 46 27 40 39
75 42 68 6 -5 -30 18 -35 39 -8 10 11 10 14 2 9 -25 -14 -13 13 15 33 19 15
23 23 15 29 -9 6 -7 15 7 37 39 59 14 61 -54 5z m22 -19 c-7 -12 -19 -21 -27
-21 -10 0 -7 8 9 25 27 29 37 27 18 -4z"/>
<path d="M1870 637 c-42 -14 -54 -47 -18 -47 13 0 29 5 36 12 17 17 15 2 -4
-27 -9 -14 -21 -25 -28 -25 -11 0 -38 -71 -30 -80 5 -4 20 15 27 35 2 6 29 -2
60 -17 54 -26 57 -27 57 -8 0 12 -13 26 -37 39 l-38 19 30 7 c54 11 80 29 83
58 3 21 -2 29 -23 37 -34 13 -71 12 -115 -3z m120 -37 c0 -11 -25 -25 -62 -34
-27 -6 -27 -5 -16 19 9 19 19 25 45 25 18 0 33 -4 33 -10z"/>
<path d="M2166 624 c-15 -15 -22 -44 -11 -44 4 0 20 7 36 16 47 24 52 13 14
-35 -19 -24 -35 -52 -35 -62 0 -29 35 -23 59 9 l20 27 1 -28 c0 -35 25 -45 51
-21 38 34 91 159 59 139 -5 -3 -18 -25 -28 -48 -18 -39 -62 -91 -62 -72 0 4
14 31 30 61 36 61 25 80 -18 32 -75 -83 -83 -92 -76 -78 4 8 18 29 31 46 13
17 23 41 23 52 0 19 -6 22 -39 22 -23 0 -46 -7 -55 -16z"/>
</g>
</svg>
